<?xml version="1.0" standalone="no"?><!DOCTYPE svg PUBLIC "-//W3C//DTD SVG 1.1//EN" "http://www.w3.org/Graphics/SVG/1.1/DTD/svg11.dtd"><svg class="icon" width="200px" height="200.00px" viewBox="0 0 1024 1024" version="1.1" xmlns="http://www.w3.org/2000/svg"><path d="M512 0c-282.88 0-512 229.12-512 512s229.12 512 512 512 512-229.12 512-512S794.88 0 512 0z m61.44 531.2c43.52 42.24 85.76 85.76 129.28 128 21.76 21.76 24.32 38.4 10.24 52.48-14.08 15.36-32 11.52-53.76-8.96-44.8-43.52-89.6-87.04-133.12-130.56-11.52-11.52-17.92-12.8-29.44 0-44.8 46.08-90.88 90.88-135.68 135.68-19.2 19.2-39.68 21.76-52.48 6.4-12.8-14.08-10.24-32 8.96-51.2 43.52-43.52 85.76-88.32 130.56-130.56 15.36-15.36 17.92-23.04 1.28-39.68-47.36-43.52-90.88-89.6-136.96-135.68-11.52-11.52-15.36-24.32-8.96-39.68 5.12-11.52 15.36-17.92 24.32-17.92 15.36 0 24.32 6.4 32 15.36 46.08 46.08 92.16 90.88 138.24 136.96 11.52 11.52 17.92 12.8 29.44 0 46.08-47.36 92.16-93.44 139.52-139.52 17.92-17.92 35.84-19.2 48.64-5.12 14.08 15.36 12.8 32-2.56 47.36-46.08 46.08-92.16 93.44-139.52 139.52-16.64 16.64-12.8 24.32 0 37.12z" fill="#DF553A" /></svg>