<?xml version="1.0" standalone="no"?><!DOCTYPE svg PUBLIC "-//W3C//DTD SVG 1.1//EN" "http://www.w3.org/Graphics/SVG/1.1/DTD/svg11.dtd"><svg class="icon" width="200px" height="200.00px" viewBox="0 0 1024 1024" version="1.1" xmlns="http://www.w3.org/2000/svg"><path d="M512 512m-512 0a512 512 0 1 0 1024 0 512 512 0 1 0-1024 0Z" fill="#F8E19A" /><path d="M512 1024c-284.444444 0-512-227.555556-512-512s227.555556-512 512-512 512 227.555556 512 512-227.555556 512-512 512z m0-682.666667c-96.711111 0-170.666667 73.955556-170.666667 170.666667s73.955556 170.666667 170.666667 170.666667 170.666667-73.955556 170.666667-170.666667-73.955556-170.666667-170.666667-170.666667z" fill="#F1C84C" /></svg>