<?xml version="1.0" encoding="utf-8"?>
<!-- Generator: Adobe Illustrator 19.0.0, SVG Export Plug-In . SVG Version: 6.00 Build 0)  -->
<svg version="1.1" id="图层_1" xmlns="http://www.w3.org/2000/svg" xmlns:xlink="http://www.w3.org/1999/xlink" x="0px" y="0px"
	 viewBox="0 0 140 21.9" style="enable-background:new 0 0 140 21.9;" xml:space="preserve">
<style type="text/css">
	.st0{fill:#D7BD5E;}
</style>
<g id="XMLID_1_">
	<g id="XMLID_245_">
		<path id="XMLID_280_" class="st0" d="M11,0C4.9,0,0,4.9,0,11c0,6.1,4.9,11,11,11c6.1,0,11-4.9,11-11C21.9,4.9,17,0,11,0z M12,12.8
			c0.3,0.3,0.5,0.6,0.5,1.1c0,0.8-0.7,1.5-1.5,1.5c-0.4,0-0.8-0.2-1.1-0.5c-0.5-0.4-1.1-0.7-1.9-0.7s-1.4,0.3-1.9,0.7
			c0,0-0.1,0.1-0.1,0.1c-0.3,0.2-0.6,0.4-1,0.4c-0.4,0-0.7-0.1-1-0.4c-0.1-0.1-0.1-0.1-0.2-0.2c0,0,0,0,0-0.1c0,0-0.1-0.1-0.1-0.1
			c0-0.1-0.1-0.2-0.1-0.3c0-0.1-0.1-0.3-0.1-0.4v0c0-0.2,0-0.3,0.1-0.4c0-0.1,0.1-0.2,0.1-0.3c0,0,0-0.1,0.1-0.1c0,0,0,0,0-0.1
			C4,13,4,13,4,12.9c0,0,0.1-0.1,0.1-0.1h0c0.4-0.5,0.7-1.1,0.7-1.8c0-0.7-0.2-1.3-0.7-1.8C3.9,8.9,3.7,8.5,3.7,8
			c0-0.8,0.7-1.5,1.5-1.5S6.6,7.2,6.6,8c0,0.4-0.2,0.8-0.5,1.1C5.7,9.6,5.4,10.3,5.4,11c0,0.7,0.3,1.4,0.7,1.9c0,0,0.1,0.1,0.1,0.1
			c0,0,0,0,0,0c0.5,0.4,1.1,0.7,1.8,0.7c0.7,0,1.3-0.2,1.8-0.7c0-0.1,0.1-0.1,0.2-0.2l0,0c0.4-0.5,0.7-1.1,0.7-1.8
			c0-0.7-0.2-1.3-0.7-1.8C9.7,8.9,9.5,8.5,9.5,8c0-0.8,0.7-1.5,1.5-1.5s1.5,0.7,1.5,1.5c0,0.4-0.2,0.8-0.5,1.1
			c-0.4,0.5-0.7,1.1-0.7,1.9C11.3,11.7,11.5,12.3,12,12.8z M13.9,12.4c-0.8,0-1.5-0.7-1.5-1.5c0-0.8,0.7-1.5,1.5-1.5
			c0.8,0,1.5,0.7,1.5,1.5C15.4,11.8,14.7,12.4,13.9,12.4z M17.8,12.8C17.9,12.9,17.9,12.9,17.8,12.8C17.9,13,18,13,18,13
			c0,0,0,0,0,0.1c0,0,0.1,0.1,0.1,0.1c0,0.1,0.1,0.2,0.1,0.3c0,0.1,0.1,0.3,0.1,0.4v0c0,0.2,0,0.3-0.1,0.4c0,0.1-0.1,0.2-0.1,0.3
			c0,0,0,0.1-0.1,0.1c0,0,0,0,0,0.1c-0.1,0.1-0.1,0.1-0.2,0.2c-0.3,0.2-0.6,0.4-1,0.4c-0.4,0-0.7-0.1-1-0.4
			c-0.1-0.1-0.1-0.1-0.2-0.2c0,0,0,0,0-0.1c0,0-0.1-0.1-0.1-0.1c0-0.1-0.1-0.2-0.1-0.3c0-0.1-0.1-0.3-0.1-0.4v0c0-0.2,0-0.3,0.1-0.4
			c0-0.1,0.1-0.2,0.1-0.3c0,0,0-0.1,0.1-0.1c0,0,0,0,0-0.1c0,0,0.1-0.1,0.1-0.1c0,0,0.1-0.1,0.1-0.1c0.4-0.5,0.7-1.1,0.7-1.8
			c0-0.7-0.2-1.3-0.7-1.8c-0.3-0.3-0.5-0.7-0.5-1.1c0-0.8,0.7-1.5,1.5-1.5c0.8,0,1.5,0.7,1.5,1.5c0,0.4-0.2,0.8-0.5,1.1
			c-0.4,0.5-0.7,1.1-0.7,1.9C17.1,11.7,17.4,12.3,17.8,12.8z"/>
		<path id="XMLID_278_" class="st0" d="M31.5,19.2V2.7h4.2v13.2h7.4v3.3H31.5z"/>
		<polygon id="XMLID_277_" class="st0" points="116.4,19.2 108.2,11 116.4,2.8 110.4,2.8 105.2,8 105.2,2.7 101,2.7 101,19.2 
			105.2,19.2 105.2,14 110.4,19.2 		"/>
		<path id="XMLID_272_" class="st0" d="M68.5,16l-1,3.2h-4.4l5.7-16.5h5.6l5.7,16.5h-4.4l-1-3.2l-1-3.1L71.6,6l-2.2,6.9L68.5,16z"/>
		<path id="XMLID_270_" class="st0" d="M86.9,8.4v10.8h-4V2.7h5.2l6.2,11.3V2.7h4v16.5h-5.2L86.9,8.4z"/>
		<path id="XMLID_247_" class="st0" d="M60,12.8c-0.2-0.5-0.5-0.9-0.8-1.3c-0.3-0.3-0.7-0.6-1.2-0.8c-0.4-0.2-0.9-0.3-1.3-0.4
			c0.4-0.1,0.8-0.2,1.2-0.4c0.4-0.2,0.7-0.4,1-0.7c0.3-0.3,0.5-0.6,0.6-1.1c0.2-0.4,0.2-0.9,0.2-1.4c0-0.5-0.1-1-0.2-1.5
			c-0.2-0.5-0.4-0.9-0.9-1.3c-0.4-0.4-0.9-0.7-1.6-0.9c-0.7-0.2-1.5-0.3-2.5-0.3h-4.5h-2.3h-1.9v16.5h1.9h2.3h5.1
			c1.7,0,2.9-0.4,3.8-1.2c0.9-0.8,1.3-1.9,1.3-3.3C60.3,14,60.2,13.4,60,12.8z M50.1,5.4h4.4c0.4,0,0.7,0.1,1,0.2
			c0.3,0.1,0.5,0.2,0.7,0.4c0.2,0.2,0.3,0.4,0.4,0.6c0.1,0.2,0.1,0.4,0.1,0.7c0,0.5-0.2,1-0.5,1.3c-0.3,0.4-0.9,0.5-1.7,0.5h-4.4
			V5.4z M56.7,15.7c-0.3,0.4-0.9,0.5-1.7,0.5h-4.9v-3.7H55c0.4,0,0.7,0.1,1,0.2c0.3,0.1,0.5,0.2,0.7,0.4c0.2,0.2,0.3,0.4,0.4,0.6
			c0.1,0.2,0.1,0.4,0.1,0.7C57.2,14.9,57.1,15.4,56.7,15.7z"/>
	</g>
	<g id="XMLID_374_">
		<path id="XMLID_385_" class="st0" d="M118.9,17.9c0.2,0.2,0.2,0.4,0.2,0.6c0,0.2-0.1,0.5-0.3,0.6c-0.2,0.2-0.4,0.2-0.6,0.2
			c-0.2,0-0.5-0.1-0.6-0.2c-0.2-0.2-0.2-0.4-0.2-0.6c0-0.2,0.1-0.5,0.2-0.6c0.2-0.2,0.4-0.2,0.6-0.2
			C118.5,17.7,118.7,17.8,118.9,17.9z"/>
		<path id="XMLID_382_" class="st0" d="M122,11.4c0.2,0.2,0.2,0.4,0.2,0.6c0,0.2-0.1,0.5-0.3,0.6c-0.2,0.2-0.4,0.2-0.6,0.2
			c-0.2,0-0.5-0.1-0.6-0.2c-0.2-0.2-0.2-0.4-0.2-0.6c0-0.2,0.1-0.5,0.2-0.6c0.2-0.2,0.4-0.2,0.6-0.2C121.6,11.2,121.8,11.3,122,11.4
			z M122,13.6v5.8h-1.3v-5.8H122z"/>
		<path id="XMLID_380_" class="st0" d="M128.8,15.8v3.6h-1.3v-3.5c0-1-0.4-1.4-1.3-1.4c-0.3,0-0.6,0.1-0.8,0.3
			c-0.3,0.2-0.4,0.6-0.5,1.1v3.5h-1.3v-5.8h1.3v0.7c0.2-0.3,0.5-0.5,0.8-0.6c0.3-0.1,0.6-0.2,1-0.2C128,13.4,128.8,14.2,128.8,15.8z
			"/>
		<path id="XMLID_378_" class="st0" d="M133.6,11.3v1.1h-1.1c-0.2,0-0.3,0-0.4,0.1c-0.1,0.1-0.1,0.2-0.1,0.4v0.6h1.5v1h-1.5v4.8
			h-1.3v-4.8h-1.3v-1h1.3v-0.6c0-0.5,0.1-0.9,0.4-1.2c0.3-0.3,0.7-0.4,1.2-0.4H133.6z"/>
		<path id="XMLID_375_" class="st0" d="M139.2,14.3c0.5,0.6,0.8,1.3,0.8,2.2c0,0.9-0.3,1.6-0.8,2.2c-0.5,0.6-1.3,0.9-2.1,0.9
			c-0.9,0-1.6-0.3-2.1-0.9c-0.5-0.6-0.8-1.3-0.8-2.2c0-0.9,0.3-1.6,0.8-2.2c0.5-0.6,1.2-0.9,2.1-0.9
			C137.9,13.4,138.7,13.7,139.2,14.3z M135.8,15.1c-0.2,0.4-0.4,0.8-0.4,1.4c0,0.6,0.1,1,0.4,1.4c0.3,0.4,0.7,0.6,1.2,0.6
			c0.5,0,0.9-0.2,1.2-0.6c0.2-0.4,0.4-0.8,0.4-1.4c0-0.6-0.1-1-0.4-1.4c-0.3-0.4-0.7-0.6-1.2-0.6C136.5,14.4,136.1,14.7,135.8,15.1z
			"/>
	</g>
</g>
</svg>
