<?xml version="1.0" encoding="utf-8"?>
<!-- Generator: Adobe Illustrator 19.0.0, SVG Export Plug-In . SVG Version: 6.00 Build 0)  -->
<svg version="1.1" id="图层_1" xmlns="http://www.w3.org/2000/svg" xmlns:xlink="http://www.w3.org/1999/xlink" x="0px" y="0px"
	 viewBox="0 0 750 117.6" style="enable-background:new 0 0 750 117.6;" xml:space="preserve">
<style type="text/css">
	.st0{fill:#323847;}
</style>
<path id="XMLID_280_" class="st0" d="M58.8,0C26.3,0,0,26.3,0,58.8c0,32.5,26.3,58.8,58.8,58.8c32.5,0,58.8-26.3,58.8-58.8
	C117.6,26.3,91.3,0,58.8,0z M64.1,68.8c1.5,1.4,2.5,3.5,2.5,5.7c0,4.3-3.5,7.8-7.8,7.8c-2.3,0-4.3-1-5.7-2.5
	c-2.7-2.3-6.2-3.7-10-3.7c-3.8,0-7.3,1.4-10,3.7c-0.2,0.2-0.3,0.3-0.5,0.5c-1.4,1.3-3.2,2-5.2,2s-3.9-0.8-5.2-2
	c-0.4-0.3-0.7-0.7-1-1.1c-0.1-0.1-0.1-0.2-0.2-0.3c-0.1-0.2-0.3-0.4-0.4-0.6c-0.2-0.4-0.4-0.9-0.6-1.4c-0.2-0.7-0.4-1.5-0.4-2.3v0
	c0-0.8,0.1-1.6,0.4-2.3c0.2-0.5,0.4-1,0.6-1.4c0.1-0.2,0.3-0.4,0.4-0.6c0.1-0.1,0.1-0.2,0.2-0.3c0.1-0.2,0.3-0.4,0.5-0.6
	c0.2-0.2,0.5-0.5,0.7-0.7h0c2.2-2.6,3.5-6.1,3.5-9.8c0-3.7-1.3-7.1-3.5-9.8c-1.7-1.4-2.7-3.6-2.7-5.9c0-4.3,3.5-7.8,7.8-7.8
	s7.8,3.5,7.8,7.8c0,2.3-1,4.3-2.5,5.7c-2.3,2.7-3.7,6.2-3.7,10c0,3.8,1.4,7.3,3.7,10c0.2,0.2,0.3,0.3,0.5,0.5
	c0.1,0.1,0.1,0.1,0.1,0.2c2.6,2.2,6.1,3.5,9.8,3.5c3.7,0,7.1-1.3,9.8-3.5c0.3-0.3,0.5-0.6,0.8-0.8l0,0c2.2-2.6,3.5-6.1,3.5-9.8
	c0-3.7-1.3-7.1-3.5-9.8C52,47.6,51,45.5,51,43.1c0-4.3,3.5-7.8,7.8-7.8s7.8,3.5,7.8,7.8c0,2.3-1,4.3-2.5,5.7
	c-2.3,2.7-3.7,6.2-3.7,10C60.4,62.6,61.8,66.1,64.1,68.8z M74.5,66.6c-4.3,0-7.8-3.5-7.8-7.8c0-4.3,3.5-7.8,7.8-7.8
	c4.3,0,7.8,3.5,7.8,7.8C82.3,63.1,78.8,66.6,74.5,66.6z M95.5,68.8c0.2,0.2,0.3,0.3,0.5,0.5c0.2,0.2,0.3,0.4,0.5,0.6
	c0.1,0.1,0.1,0.2,0.2,0.3c0.1,0.2,0.3,0.4,0.4,0.6c0.2,0.4,0.4,0.9,0.6,1.4c0.2,0.7,0.4,1.5,0.4,2.3v0c0,0.8-0.1,1.6-0.4,2.3
	c-0.2,0.5-0.4,1-0.6,1.4c-0.1,0.2-0.3,0.4-0.4,0.6c-0.1,0.1-0.1,0.2-0.2,0.3c-0.3,0.4-0.6,0.8-1,1.1c-1.4,1.3-3.2,2-5.2,2
	c-2,0-3.9-0.8-5.2-2c-0.4-0.3-0.7-0.7-1-1.1c-0.1-0.1-0.1-0.2-0.2-0.3c-0.1-0.2-0.3-0.4-0.4-0.6c-0.2-0.4-0.4-0.9-0.6-1.4
	c-0.2-0.7-0.4-1.5-0.4-2.3v0c0-0.8,0.1-1.6,0.4-2.3c0.2-0.5,0.4-1,0.6-1.4c0.1-0.2,0.3-0.4,0.4-0.6c0.1-0.1,0.1-0.2,0.2-0.3
	c0.1-0.2,0.3-0.4,0.5-0.6c0.2-0.2,0.5-0.5,0.7-0.7c2.2-2.6,3.5-6.1,3.5-9.8c0-3.7-1.3-7.1-3.5-9.8c-1.7-1.4-2.7-3.6-2.7-5.9
	c0-4.3,3.5-7.8,7.8-7.8c4.3,0,7.8,3.5,7.8,7.8c0,2.3-1,4.3-2.5,5.7c-2.3,2.7-3.7,6.2-3.7,10C91.8,62.6,93.2,66.1,95.5,68.8z"/>
<path id="XMLID_278_" class="st0" d="M168.8,102.9V14.7h22.6v70.6h39.7v17.6H168.8z"/>
<polygon id="XMLID_277_" class="st0" points="623.6,102.9 579.5,58.8 623.5,14.8 591.6,14.8 563.8,42.6 563.8,14.7 541.2,14.7 
	541.2,102.9 563.8,102.9 563.8,75 591.7,102.9 "/>
<path id="XMLID_272_" class="st0" d="M366.9,85.7l-5.4,17.2H338l30.5-88.2h30.1l30.7,88.2h-23.5l-5.4-17.2L395,69.1l-11.4-36.9
	L372,69.1L366.9,85.7z"/>
<path id="XMLID_270_" class="st0" d="M465.7,44.9v58h-21.5V14.7h27.7l33,60.8V14.7h21.5v88.2h-27.8L465.7,44.9z"/>
<path id="XMLID_247_" class="st0" d="M321.4,68.8c-1.1-2.7-2.6-5-4.4-6.8c-1.8-1.8-3.9-3.2-6.2-4.2c-2.3-1-4.7-1.7-7-2.2
	c2.3-0.4,4.4-1.1,6.4-2.1c2-1,3.7-2.2,5.2-3.8c1.5-1.6,2.6-3.4,3.5-5.6c0.8-2.2,1.3-4.8,1.3-7.7c0-2.8-0.4-5.5-1.3-8.1
	c-0.9-2.6-2.4-4.9-4.6-6.9c-2.2-2-5-3.6-8.5-4.8c-3.5-1.2-7.9-1.8-13.2-1.8h-24.1h-12.3h-10.3v88.2h10.3h12.3h27.3
	c8.9,0,15.7-2.1,20.4-6.4c4.6-4.3,7-10.2,7-17.9C323.1,74.8,322.6,71.5,321.4,68.8z M268.5,28.8h23.7c2.1,0,3.9,0.3,5.4,0.8
	c1.5,0.5,2.7,1.3,3.6,2.2c0.9,0.9,1.6,2,2,3.1c0.4,1.1,0.6,2.3,0.6,3.6c0,2.9-0.9,5.2-2.6,7.1c-1.7,1.9-4.7,2.8-9,2.8h-23.7V28.8z
	 M303.9,84.3c-1.7,1.9-4.7,2.8-9,2.8h-26.4V67.4h26.4c2.1,0,3.9,0.3,5.4,0.8c1.5,0.5,2.7,1.3,3.6,2.2c0.9,0.9,1.6,2,2,3.1
	c0.4,1.1,0.6,2.3,0.6,3.6C306.5,80,305.6,82.4,303.9,84.3z"/>
<path id="XMLID_385_" class="st0" d="M636.8,96c0.8,0.8,1.3,1.9,1.3,3.3s-0.5,2.5-1.4,3.3c-0.9,0.8-2,1.3-3.3,1.3
	c-1.3,0-2.4-0.5-3.3-1.3c-0.9-0.8-1.3-1.9-1.3-3.3s0.4-2.4,1.3-3.3c0.9-0.8,2-1.3,3.3-1.3C634.7,94.7,635.9,95.1,636.8,96z"/>
<path id="XMLID_382_" class="st0" d="M653.4,61.2c0.8,0.8,1.3,1.9,1.3,3.3s-0.5,2.5-1.4,3.3c-0.9,0.8-2,1.3-3.3,1.3
	c-1.3,0-2.4-0.4-3.3-1.3c-0.9-0.9-1.3-2-1.3-3.3s0.4-2.4,1.3-3.3c0.9-0.8,2-1.3,3.3-1.3C651.3,59.9,652.5,60.3,653.4,61.2z
	 M653.5,72.6v31.2h-6.9V72.6H653.5z"/>
<path id="XMLID_380_" class="st0" d="M689.8,84.6v19.2h-6.9V85.2c0-5.1-2.4-7.7-7.1-7.7c-1.7,0-3.2,0.6-4.5,1.8
	c-1.4,1.3-2.3,3.3-2.5,5.7v18.8H662V72.6h6.9v3.6c1.2-1.4,2.6-2.6,4.1-3.3c1.6-0.8,3.3-1.1,5.1-1.1C685.9,71.8,689.8,76,689.8,84.6z
	"/>
<path id="XMLID_378_" class="st0" d="M715.9,60.7v5.8h-5.7c-0.9,0-1.6,0.2-2.1,0.7c-0.5,0.5-0.7,1.2-0.7,2.2v3.1h8v5.6h-8v25.6h-6.9
	V78.2h-6.9v-5.6h6.9v-3.3c0-2.7,0.7-4.8,2.2-6.3c1.4-1.6,3.6-2.3,6.4-2.3H715.9z"/>
<path id="XMLID_375_" class="st0" d="M745.7,76.4c2.8,3.1,4.3,7,4.3,11.8c0,4.8-1.4,8.7-4.2,11.7c-2.9,3.1-6.8,4.7-11.5,4.7
	c-4.8,0-8.6-1.6-11.5-4.7c-2.8-3-4.2-6.9-4.2-11.7c0-4.8,1.4-8.7,4.3-11.8c2.8-3.1,6.6-4.6,11.4-4.6C739,71.8,742.8,73.3,745.7,76.4
	z M727.7,80.8c-1.3,1.9-2,4.5-2,7.5c0,3,0.7,5.5,2,7.4c1.6,2.2,3.7,3.4,6.6,3.4c2.8,0,5.1-1.1,6.6-3.4c1.3-2,2.1-4.5,2.1-7.4
	c0-3-0.7-5.6-2.1-7.5c-1.6-2.3-3.8-3.4-6.6-3.4C731.4,77.4,729.2,78.5,727.7,80.8z"/>
</svg>
