<?xml version="1.0" standalone="no"?><!DOCTYPE svg PUBLIC "-//W3C//DTD SVG 1.1//EN" "http://www.w3.org/Graphics/SVG/1.1/DTD/svg11.dtd"><svg class="icon" width="200px" height="200.00px" viewBox="0 0 1024 1024" version="1.1" xmlns="http://www.w3.org/2000/svg"><path d="M1024 512c0 63.488-11.264 123.904-32.256 179.712-24.064 64.512-60.928 122.88-107.52 172.032C791.04 962.56 658.432 1024 512 1024s-279.04-61.44-372.224-160.256c-46.592-49.152-83.456-107.52-107.52-172.032C11.264 635.904 0 575.488 0 512c0-63.488 11.264-123.904 32.256-179.712 24.064-64.512 60.928-122.88 107.52-172.032C232.96 61.44 365.568 0 512 0s279.04 61.44 372.224 160.256c46.592 49.152 83.456 107.52 107.52 172.032 20.992 55.808 32.256 116.224 32.256 179.712z" fill="#E50012" /><path d="M1024 512c0 63.488-11.264 123.904-32.256 179.712-24.064 64.512-60.928 122.88-107.52 172.032H139.776c-46.592-49.152-83.456-107.52-107.52-172.032C11.264 635.904 0 575.488 0 512c0-63.488 11.264-123.904 32.256-179.712 24.064-64.512 60.928-122.88 107.52-172.032h744.448c46.592 49.152 83.456 107.52 107.52 172.032 20.992 55.808 32.256 116.224 32.256 179.712z" fill="#FFFFFF" /><path d="M1024 512c0 63.488-11.264 123.904-32.256 179.712H32.256C11.264 635.904 0 575.488 0 512c0-63.488 11.264-123.904 32.256-179.712h958.976c21.504 55.808 32.768 116.224 32.768 179.712z" fill="#0068B6" /></svg>