<?xml version="1.0" standalone="no"?><!DOCTYPE svg PUBLIC "-//W3C//DTD SVG 1.1//EN" "http://www.w3.org/Graphics/SVG/1.1/DTD/svg11.dtd"><svg class="icon" width="200px" height="200.00px" viewBox="0 0 1024 1024" version="1.1" xmlns="http://www.w3.org/2000/svg"><path d="M1024 512c0-76.8-61.866667-147.2-172.8-196.266667C861.866667 196.266667 832 106.666667 768 68.266667c-23.466667-12.8-46.933333-21.333333-76.8-21.333334-55.466667 2.133333-117.333333 27.733333-179.2 72.533334-64-46.933333-125.866667-70.4-179.2-70.4-27.733333 0-53.333333 6.4-76.8 19.2C192 106.666667 162.133333 194.133333 172.8 315.733333 61.866667 364.8 0 435.2 0 512c0 76.8 61.866667 147.2 172.8 196.266667-10.666667 119.466667 19.2 209.066667 83.2 247.466666 23.466667 12.8 46.933333 21.333333 76.8 21.333334 53.333333 0 115.2-23.466667 179.2-70.4 64 46.933333 125.866667 70.4 179.2 70.4 27.733333 0 53.333333-6.4 76.8-19.2 64-38.4 93.866667-128 83.2-247.466667 110.933333-51.2 172.8-121.6 172.8-198.4z m-61.866667 0c0 44.8-42.666667 91.733333-117.333333 130.133333h-2.133333c-8.533333-42.666667-23.466667-87.466667-40.533334-132.266666 17.066667-42.666667 32-87.466667 40.533334-132.266667h2.133333c74.666667 40.533333 117.333333 89.6 117.333333 134.4zM554.666667 595.2c14.933333-10.666667 27.733333-29.866667 34.133333-53.333333 8.533333-6.4 14.933333-14.933333 14.933333-25.6v-23.466667c0-8.533333-2.133333-17.066667-8.533333-21.333333-2.133333-25.6-12.8-87.466667-83.2-87.466667s-81.066667 59.733333-83.2 85.333333c-6.4 4.266667-8.533333 12.8-8.533333 21.333334v23.466666c0 10.666667 4.266667 23.466667 14.933333 29.866667 6.4 21.333333 19.2 40.533333 34.133333 53.333333v4.266667c0 2.133333 0 6.4-2.133333 8.533333-29.866667 6.4-74.666667 25.6-100.266667 51.2-10.666667-14.933333-19.2-29.866667-29.866666-46.933333-19.2-34.133333-36.266667-66.133333-49.066667-98.133333 14.933333-34.133333 29.866667-66.133333 49.066667-100.266667 14.933333-25.6 32-51.2 49.066666-76.8l10.666667-17.066667c36.266667-4.266667 72.533333-6.4 108.8-6.4 38.4 0 76.8 2.133333 108.8 6.4 21.333333 25.6 40.533333 55.466667 61.866667 93.866667 19.2 34.133333 36.266667 66.133333 49.066666 98.133333-14.933333 34.133333-29.866667 66.133333-49.066666 98.133334l-2.133334 2.133333c-2.133333 12.8-10.666667 25.6-21.333333 42.666667-25.6-23.466667-70.4-42.666667-100.266667-51.2 0-2.133333-2.133333-4.266667-2.133333-8.533334v-2.133333z m202.666666-179.2c-6.4-12.8-12.8-23.466667-19.2-36.266667-8.533333-14.933333-17.066667-29.866667-27.733333-44.8 25.6 6.4 49.066667 12.8 70.4 19.2-4.266667 25.6-10.666667 51.2-17.066667 74.666667-2.133333-2.133333-4.266667-6.4-6.4-12.8z m-443.733333-81.066667c-10.666667 14.933333-19.2 32-27.733333 46.933334-6.4 10.666667-12.8 23.466667-19.2 36.266666l-6.4 12.8c-6.4-23.466667-12.8-49.066667-17.066667-74.666666 23.466667-8.533333 46.933333-17.066667 70.4-21.333334z m-46.933333 270.933334c6.4 12.8 12.8 23.466667 19.2 36.266666 8.533333 14.933333 17.066667 29.866667 27.733333 44.8-25.6-6.4-49.066667-12.8-70.4-19.2 4.266667-25.6 10.666667-51.2 17.066667-74.666666l6.4 12.8z m443.733333 83.2l12.8-19.2c4.266667-8.533333 10.666667-17.066667 17.066667-25.6 6.4-10.666667 12.8-23.466667 19.2-36.266667 2.133333-4.266667 4.266667-8.533333 6.4-14.933333 8.533333 25.6 14.933333 49.066667 17.066666 74.666666-25.6 8.533333-49.066667 17.066667-72.533333 21.333334zM789.333333 292.266667c-36.266667-12.8-78.933333-21.333333-134.4-29.866667-29.866667-36.266667-61.866667-70.4-93.866666-100.266667 44.8-32 89.6-49.066667 130.133333-49.066666 17.066667 0 32 4.266667 44.8 10.666666 40.533333 23.466667 59.733333 83.2 53.333333 168.533334z m-236.8-40.533334c-12.8 0-25.6-2.133333-40.533333-2.133333s-27.733333 0-40.533333 2.133333h-12.8L512 198.4c19.2 17.066667 36.266667 34.133333 53.333333 53.333333h-12.8z m-183.466666 8.533334c-46.933333 6.4-91.733333 17.066667-134.4 32v-2.133334c-6.4-83.2 12.8-145.066667 53.333333-168.533333 12.8-6.4 27.733333-10.666667 44.8-10.666667 36.266667 0 81.066667 17.066667 130.133333 49.066667-34.133333 29.866667-64 61.866667-93.866666 100.266667zM234.666667 731.733333c36.266667 12.8 78.933333 21.333333 134.4 29.866667 29.866667 36.266667 61.866667 70.4 93.866666 100.266667-44.8 32-89.6 49.066667-130.133333 49.066666-17.066667 0-32-4.266667-44.8-10.666666-40.533333-23.466667-59.733333-83.2-53.333333-168.533334z m315.733333 40.533334h14.933333L512 825.6c-17.066667-14.933333-36.266667-34.133333-53.333333-51.2 32 0 61.866667 0 91.733333-2.133333z m104.533333-8.533334c46.933333-6.4 91.733333-17.066667 134.4-32v2.133334c6.4 83.2-12.8 145.066667-53.333333 168.533333-12.8 6.4-27.733333 10.666667-44.8 10.666667-36.266667 0-81.066667-17.066667-130.133333-49.066667 34.133333-29.866667 64-61.866667 93.866666-100.266667zM221.866667 512c-17.066667 42.666667-32 87.466667-40.533334 132.266667h-2.133333c-74.666667-38.4-117.333333-85.333333-117.333333-130.133334 0-44.8 42.666667-91.733333 117.333333-130.133333h2.133333c10.666667 40.533333 23.466667 85.333333 40.533334 128z" fill="#00D8BF" /></svg>