<?xml version="1.0" standalone="no"?><!DOCTYPE svg PUBLIC "-//W3C//DTD SVG 1.1//EN" "http://www.w3.org/Graphics/SVG/1.1/DTD/svg11.dtd"><svg class="icon" width="200px" height="200.00px" viewBox="0 0 1024 1024" version="1.1" xmlns="http://www.w3.org/2000/svg"><path d="M334.293333 167.317333a1130.88 1130.88 0 0 0 129.92-81.322666v357.034666H134.272c-11.221333-136.533333 0.512-262.656 0.512-262.656s78.336 52.245333 199.509333-13.056zM877.290667 180.544s-78.186667 52.245333-198.848-13.226667A1163.648 1163.648 0 0 1 547.861333 85.333333v357.866667h329.92c11.242667-136.533333-0.490667-262.656-0.490666-262.656zM195.946667 692.138667c81.642667 145.472 204.309333 211.264 268.266666 237.525333v-402.986667H144.362667c10.090667 61.333333 25.962667 119.850667 51.584 165.461334zM630.186667 719.573333a37.333333 37.333333 0 0 1 37.333333-37.333333h1.173333v-17.706667a118.165333 118.165333 0 0 1 191.082667-93.056c3.136-14.058667 5.781333-28.266667 8.106667-42.666666H548.181333v402.837333a537.728 537.728 0 0 0 81.984-42.304V719.573333z" fill="#00D8BF" /><path d="M889.024 709.653333h-201.984c-15.36 0-27.776 12.245333-27.776 27.456v160.832c0 15.210667 12.394667 27.434667 27.776 27.434667h201.984c15.36 0 27.776-12.224 27.776-27.434667v-160.853333c0-15.018667-12.394667-27.434667-27.776-27.434667zM805.546667 821.76v40.32c0 8.768-7.104 15.872-15.850667 15.872h-3.157333a15.872 15.872 0 0 1-15.850667-15.872v-40.32a34.666667 34.666667 0 0 1-17.194667-29.930667 34.538667 34.538667 0 1 1 69.077334 0c0 12.736-6.933333 23.978667-17.024 29.930667zM741.098667 682.389333v-16.533333a46.976 46.976 0 0 1 46.933333-46.784c25.792 0 46.933333 20.992 46.933333 46.784v16.533333h34.389334a90.88 90.88 0 0 0 1.322666-15.04 82.752 82.752 0 0 0-82.816-82.816 82.752 82.752 0 0 0-82.816 82.816c0 5.12 0.512 10.24 1.322667 15.04h34.730667z" fill="#00D8BF" /></svg>