<?xml version="1.0" standalone="no"?><!DOCTYPE svg PUBLIC "-//W3C//DTD SVG 1.1//EN" "http://www.w3.org/Graphics/SVG/1.1/DTD/svg11.dtd"><svg class="icon" width="200px" height="200.00px" viewBox="0 0 1024 1024" version="1.1" xmlns="http://www.w3.org/2000/svg"><path d="M512 512m-512 0a512 512 0 1 0 1024 0 512 512 0 1 0-1024 0Z" fill="#FFFFFF" /><path d="M512 1024c-281.6 0-512-230.4-512-512s230.4-512 512-512 512 230.4 512 512-230.4 512-512 512z m0-989.866667c-262.826667 0-477.866667 215.04-477.866667 477.866667s215.04 477.866667 477.866667 477.866667 477.866667-215.04 477.866667-477.866667-215.04-477.866667-477.866667-477.866667z" fill="#868699" /><path d="M486.4 380.586667v-81.92c0-23.893333 11.946667-37.546667 32.426667-37.546667 18.773333 0 30.72 13.653333 30.72 39.253333 0 52.906667 1.706667 107.52 0 160.426667 0 20.48 6.826667 25.6 25.6 25.6 52.906667-1.706667 105.813333 0 158.72 0 27.306667 0 40.96 11.946667 40.96 32.426667s-13.653333 30.72-40.96 30.72c-52.906667 0-105.813333 1.706667-158.72 0-20.48 0-25.6 6.826667-25.6 25.6 1.706667 52.906667 0 105.813333 0 158.72 0 25.6-11.946667 40.96-32.426667 40.96s-30.72-13.653333-30.72-40.96c0-51.2-1.706667-104.106667 0-155.306667 1.706667-23.893333-6.826667-27.306667-29.013333-27.306667-52.906667 1.706667-107.52 0-160.426667 0-17.066667 0-29.013333-6.826667-34.133333-23.893333-3.413333-13.653333 1.706667-25.6 13.653333-34.133333 8.533333-6.826667 17.066667-5.12 27.306667-5.12 52.906667 0 105.813333-1.706667 158.72 0 20.48 0 25.6-6.826667 25.6-25.6-3.413333-29.013333-3.413333-54.613333-1.706667-81.92z" fill="#868699" /></svg>